<svg id="svg" version="1.1" width="400" height="400" xmlns="http://www.w3.org/2000/svg" xmlns:xlink="http://www.w3.org/1999/xlink" style="display: block;"><g id="svgg"><path id="path0" d="M86.000 20.800 C 86.000 21.460,86.180 22.000,86.400 22.000 C 86.620 22.000,86.800 21.460,86.800 20.800 C 86.800 20.140,86.620 19.600,86.400 19.600 C 86.180 19.600,86.000 20.140,86.000 20.800 M314.000 20.800 C 314.000 21.460,314.180 22.000,314.400 22.000 C 314.620 22.000,314.800 21.460,314.800 20.800 C 314.800 20.140,314.620 19.600,314.400 19.600 C 314.180 19.600,314.000 20.140,314.000 20.800 M83.278 21.022 C 82.441 21.971,83.732 23.125,84.629 22.229 C 85.187 21.670,85.190 21.533,84.657 21.000 C 83.935 20.278,83.934 20.278,83.278 21.022 M316.078 21.022 C 315.241 21.971,316.532 23.125,317.429 22.229 C 317.987 21.670,317.990 21.533,317.457 21.000 C 316.735 20.278,316.734 20.278,316.078 21.022 M82.000 24.000 C 82.000 24.220,82.540 24.400,83.200 24.400 C 83.860 24.400,84.400 24.220,84.400 24.000 C 84.400 23.780,83.860 23.600,83.200 23.600 C 82.540 23.600,82.000 23.780,82.000 24.000 M316.400 24.000 C 316.400 24.220,316.940 24.400,317.600 24.400 C 318.260 24.400,318.800 24.220,318.800 24.000 C 318.800 23.780,318.260 23.600,317.600 23.600 C 316.940 23.600,316.400 23.780,316.400 24.000 M25.600 83.200 C 25.600 83.860,25.780 84.400,26.000 84.400 C 26.220 84.400,26.400 83.860,26.400 83.200 C 26.400 82.540,26.220 82.000,26.000 82.000 C 25.780 82.000,25.600 82.540,25.600 83.200 M374.400 83.200 C 374.400 83.860,374.580 84.400,374.800 84.400 C 375.020 84.400,375.200 83.860,375.200 83.200 C 375.200 82.540,375.020 82.000,374.800 82.000 C 374.580 82.000,374.400 82.540,374.400 83.200 M19.600 88.800 C 19.600 89.020,20.140 89.200,20.800 89.200 C 21.460 89.200,22.000 89.020,22.000 88.800 C 22.000 88.580,21.460 88.400,20.800 88.400 C 20.140 88.400,19.600 88.580,19.600 88.800 M378.800 88.800 C 378.800 89.020,379.340 89.200,380.000 89.200 C 380.660 89.200,381.200 89.020,381.200 88.800 C 381.200 88.580,380.660 88.400,380.000 88.400 C 379.340 88.400,378.800 88.580,378.800 88.800 M204.000 92.600 C 204.000 93.150,204.180 93.600,204.400 93.600 C 204.620 93.600,204.800 93.150,204.800 92.600 C 204.800 92.050,204.620 91.600,204.400 91.600 C 204.180 91.600,204.000 92.050,204.000 92.600 M10.000 108.200 C 10.000 108.750,10.180 109.200,10.400 109.200 C 10.620 109.200,10.800 108.750,10.800 108.200 C 10.800 107.650,10.620 107.200,10.400 107.200 C 10.180 107.200,10.000 107.650,10.000 108.200 M7.200 110.400 C 7.200 110.620,7.650 110.800,8.200 110.800 C 8.750 110.800,9.200 110.620,9.200 110.400 C 9.200 110.180,8.750 110.000,8.200 110.000 C 7.650 110.000,7.200 110.180,7.200 110.400 M189.200 145.600 C 189.200 146.260,189.380 146.800,189.600 146.800 C 189.820 146.800,190.000 146.260,190.000 145.600 C 190.000 144.940,189.820 144.400,189.600 144.400 C 189.380 144.400,189.200 144.940,189.200 145.600 M184.878 147.422 C 184.041 148.371,185.332 149.525,186.229 148.629 C 186.787 148.070,186.790 147.933,186.257 147.400 C 185.535 146.678,185.534 146.678,184.878 147.422 M182.000 152.000 C 182.000 152.220,182.540 152.400,183.200 152.400 C 183.860 152.400,184.400 152.220,184.400 152.000 C 184.400 151.780,183.860 151.600,183.200 151.600 C 182.540 151.600,182.000 151.780,182.000 152.000 M169.600 170.000 C 169.600 170.220,170.140 170.400,170.800 170.400 C 171.460 170.400,172.000 170.220,172.000 170.000 C 172.000 169.780,171.460 169.600,170.800 169.600 C 170.140 169.600,169.600 169.780,169.600 170.000 M19.600 312.000 C 19.600 312.220,20.140 312.400,20.800 312.400 C 21.460 312.400,22.000 312.220,22.000 312.000 C 22.000 311.780,21.460 311.600,20.800 311.600 C 20.140 311.600,19.600 311.780,19.600 312.000 M378.800 312.000 C 378.800 312.220,379.340 312.400,380.000 312.400 C 380.660 312.400,381.200 312.220,381.200 312.000 C 381.200 311.780,380.660 311.600,380.000 311.600 C 379.340 311.600,378.800 311.780,378.800 312.000 M25.600 317.600 C 25.600 318.260,25.780 318.800,26.000 318.800 C 26.220 318.800,26.400 318.260,26.400 317.600 C 26.400 316.940,26.220 316.400,26.000 316.400 C 25.780 316.400,25.600 316.940,25.600 317.600 M374.400 317.600 C 374.400 318.260,374.580 318.800,374.800 318.800 C 375.020 318.800,375.200 318.260,375.200 317.600 C 375.200 316.940,375.020 316.400,374.800 316.400 C 374.580 316.400,374.400 316.940,374.400 317.600 M223.600 333.200 C 223.600 333.860,223.780 334.400,224.000 334.400 C 224.220 334.400,224.400 333.860,224.400 333.200 C 224.400 332.540,224.220 332.000,224.000 332.000 C 223.780 332.000,223.600 332.540,223.600 333.200 M220.878 333.422 C 220.041 334.371,221.332 335.525,222.229 334.629 C 222.787 334.070,222.790 333.933,222.257 333.400 C 221.535 332.678,221.534 332.678,220.878 333.422 M219.600 336.400 C 219.600 336.620,220.140 336.800,220.800 336.800 C 221.460 336.800,222.000 336.620,222.000 336.400 C 222.000 336.180,221.460 336.000,220.800 336.000 C 220.140 336.000,219.600 336.180,219.600 336.400 M82.000 376.800 C 82.000 377.020,82.540 377.200,83.200 377.200 C 83.860 377.200,84.400 377.020,84.400 376.800 C 84.400 376.580,83.860 376.400,83.200 376.400 C 82.540 376.400,82.000 376.580,82.000 376.800 M316.400 376.800 C 316.400 377.020,316.940 377.200,317.600 377.200 C 318.260 377.200,318.800 377.020,318.800 376.800 C 318.800 376.580,318.260 376.400,317.600 376.400 C 316.940 376.400,316.400 376.580,316.400 376.800 M83.278 378.622 C 82.441 379.571,83.732 380.725,84.629 379.829 C 85.187 379.270,85.190 379.133,84.657 378.600 C 83.935 377.878,83.934 377.878,83.278 378.622 M316.078 378.622 C 315.241 379.571,316.532 380.725,317.429 379.829 C 317.987 379.270,317.990 379.133,317.457 378.600 C 316.735 377.878,316.734 377.878,316.078 378.622 M86.000 380.000 C 86.000 380.660,86.180 381.200,86.400 381.200 C 86.620 381.200,86.800 380.660,86.800 380.000 C 86.800 379.340,86.620 378.800,86.400 378.800 C 86.180 378.800,86.000 379.340,86.000 380.000 M314.000 380.000 C 314.000 380.660,314.180 381.200,314.400 381.200 C 314.620 381.200,314.800 380.660,314.800 380.000 C 314.800 379.340,314.620 378.800,314.400 378.800 C 314.180 378.800,314.000 379.340,314.000 380.000 " stroke="none" fill="#555555" fill-rule="evenodd"></path><path id="path1" d="M132.800 3.600 L 132.800 7.200 121.400 7.200 C 114.635 7.200,110.000 7.351,110.000 7.572 C 110.000 7.777,109.595 8.002,109.100 8.072 C 108.522 8.154,108.154 8.522,108.072 9.100 C 108.002 9.595,107.777 10.000,107.572 10.000 C 107.363 10.000,107.200 12.106,107.200 14.800 L 107.200 19.600 99.433 19.600 C 93.611 19.600,91.608 19.725,91.433 20.100 C 91.247 20.500,91.153 20.500,90.967 20.100 C 90.401 18.888,86.800 19.493,86.800 20.800 C 86.800 21.460,86.620 22.000,86.400 22.000 C 86.180 22.000,86.000 21.640,86.000 21.200 C 86.000 20.105,84.974 20.190,83.782 21.382 C 82.590 22.574,82.505 23.600,83.600 23.600 C 84.040 23.600,84.400 23.780,84.400 24.000 C 84.400 24.220,83.860 24.400,83.200 24.400 C 81.899 24.400,81.302 27.608,82.500 28.167 C 82.900 28.353,82.900 28.447,82.500 28.633 C 82.225 28.762,82.000 29.571,82.000 30.433 L 82.000 32.000 76.782 32.000 C 69.595 32.000,69.600 31.995,69.600 39.182 L 69.600 44.400 63.971 44.400 C 56.763 44.400,57.200 43.950,57.200 51.371 L 57.200 57.200 51.371 57.200 C 43.950 57.200,44.400 56.763,44.400 63.971 L 44.400 69.600 39.182 69.600 C 31.995 69.600,32.000 69.595,32.000 76.782 L 32.000 82.000 29.200 82.000 L 26.400 82.000 26.400 83.200 C 26.400 83.860,26.220 84.400,26.000 84.400 C 25.780 84.400,25.600 84.040,25.600 83.600 C 25.600 82.214,23.425 82.548,21.787 84.187 C 20.122 85.852,19.767 88.400,21.200 88.400 C 21.640 88.400,22.000 88.580,22.000 88.800 C 22.000 89.020,21.460 89.200,20.800 89.200 L 19.600 89.200 19.600 92.167 C 19.600 94.149,19.766 95.211,20.100 95.367 C 20.500 95.553,20.500 95.647,20.100 95.833 C 19.736 96.003,19.600 97.537,19.600 101.462 C 19.600 106.573,18.813 109.840,18.099 107.696 C 17.882 107.046,14.937 107.049,14.633 107.700 C 14.447 108.100,14.353 108.100,14.167 107.700 C 13.681 106.658,10.800 107.086,10.800 108.200 C 10.800 108.750,10.620 109.200,10.400 109.200 C 10.180 109.200,10.000 108.917,10.000 108.572 C 10.000 108.150,9.705 107.986,9.100 108.072 C 8.030 108.224,7.544 110.000,8.572 110.000 C 8.917 110.000,9.200 110.180,9.200 110.400 C 9.200 110.620,8.750 110.800,8.200 110.800 C 7.086 110.800,6.658 113.681,7.700 114.167 C 8.100 114.353,8.100 114.447,7.700 114.633 C 7.425 114.762,7.200 115.557,7.200 116.400 C 7.200 117.243,7.425 118.038,7.700 118.167 C 8.100 118.353,8.100 118.447,7.700 118.633 C 7.328 118.807,7.200 120.651,7.200 125.833 L 7.200 132.800 3.600 132.800 L 0.000 132.800 0.000 200.400 L 0.000 268.000 3.600 268.000 L 7.200 268.000 7.200 279.400 C 7.200 285.809,7.356 290.800,7.557 290.800 C 7.753 290.800,8.026 291.250,8.164 291.800 C 8.326 292.446,8.696 292.800,9.208 292.800 C 9.643 292.800,10.000 292.980,10.000 293.200 C 10.000 293.444,11.867 293.600,14.800 293.600 L 19.600 293.600 19.600 299.167 C 19.600 303.229,19.735 304.796,20.100 304.967 C 20.500 305.153,20.500 305.247,20.100 305.433 C 19.766 305.589,19.600 306.651,19.600 308.633 L 19.600 311.600 20.800 311.600 C 21.460 311.600,22.000 311.780,22.000 312.000 C 22.000 312.220,21.640 312.400,21.200 312.400 C 19.767 312.400,20.122 314.948,21.787 316.613 C 23.425 318.252,25.600 318.586,25.600 317.200 C 25.600 316.760,25.780 316.400,26.000 316.400 C 26.220 316.400,26.400 316.940,26.400 317.600 L 26.400 318.800 29.200 318.800 L 32.000 318.800 32.000 324.018 C 32.000 331.205,31.995 331.200,39.182 331.200 L 44.400 331.200 44.400 336.829 C 44.400 344.037,43.950 343.600,51.371 343.600 L 57.200 343.600 57.200 349.429 C 57.200 356.850,56.763 356.400,63.971 356.400 L 69.600 356.400 69.600 361.618 C 69.600 368.805,69.595 368.800,76.782 368.800 L 82.000 368.800 82.000 370.367 C 82.000 371.229,82.225 372.038,82.500 372.167 C 82.900 372.353,82.900 372.447,82.500 372.633 C 81.302 373.192,81.899 376.400,83.200 376.400 C 83.860 376.400,84.400 376.580,84.400 376.800 C 84.400 377.020,84.040 377.200,83.600 377.200 C 82.505 377.200,82.590 378.226,83.782 379.418 C 84.974 380.610,86.000 380.695,86.000 379.600 C 86.000 379.160,86.180 378.800,86.400 378.800 C 86.620 378.800,86.800 379.340,86.800 380.000 C 86.800 381.307,90.401 381.912,90.967 380.700 C 91.153 380.300,91.247 380.300,91.433 380.700 C 91.608 381.075,93.611 381.200,99.433 381.200 L 107.200 381.200 107.200 386.000 C 107.200 388.640,107.360 390.800,107.557 390.800 C 107.753 390.800,108.026 391.250,108.164 391.800 C 108.326 392.446,108.696 392.800,109.208 392.800 C 109.643 392.800,110.000 392.980,110.000 393.200 C 110.000 393.457,114.067 393.600,121.400 393.600 L 132.800 393.600 132.800 396.800 L 132.800 400.000 200.400 400.000 L 268.000 400.000 268.000 396.800 L 268.000 393.600 279.400 393.600 C 286.733 393.600,290.800 393.457,290.800 393.200 C 290.800 392.980,290.993 392.800,291.229 392.800 C 291.782 392.800,292.800 391.782,292.800 391.229 C 292.800 390.993,292.980 390.800,293.200 390.800 C 293.444 390.800,293.600 388.933,293.600 386.000 L 293.600 381.200 301.367 381.200 C 307.189 381.200,309.192 381.075,309.367 380.700 C 309.553 380.300,309.647 380.300,309.833 380.700 C 310.399 381.912,314.000 381.307,314.000 380.000 C 314.000 379.340,314.180 378.800,314.400 378.800 C 314.620 378.800,314.800 379.160,314.800 379.600 C 314.800 380.695,315.826 380.610,317.018 379.418 C 318.210 378.226,318.295 377.200,317.200 377.200 C 316.760 377.200,316.400 377.020,316.400 376.800 C 316.400 376.580,316.940 376.400,317.600 376.400 C 318.901 376.400,319.498 373.192,318.300 372.633 C 317.900 372.447,317.900 372.353,318.300 372.167 C 318.575 372.038,318.800 371.229,318.800 370.367 L 318.800 368.800 324.018 368.800 C 331.205 368.800,331.200 368.805,331.200 361.618 L 331.200 356.400 336.829 356.400 C 344.037 356.400,343.600 356.850,343.600 349.429 L 343.600 343.600 349.429 343.600 C 356.850 343.600,356.400 344.037,356.400 336.829 L 356.400 331.200 361.618 331.200 C 368.805 331.200,368.800 331.205,368.800 324.018 L 368.800 318.800 371.600 318.800 L 374.400 318.800 374.400 317.600 C 374.400 316.940,374.580 316.400,374.800 316.400 C 375.020 316.400,375.200 316.760,375.200 317.200 C 375.200 318.586,377.375 318.252,379.013 316.613 C 380.678 314.948,381.033 312.400,379.600 312.400 C 379.160 312.400,378.800 312.220,378.800 312.000 C 378.800 311.780,379.340 311.600,380.000 311.600 L 381.200 311.600 381.200 308.633 C 381.200 306.651,381.034 305.589,380.700 305.433 C 380.300 305.247,380.300 305.153,380.700 304.967 C 381.065 304.796,381.200 303.229,381.200 299.167 L 381.200 293.600 386.000 293.600 C 388.933 293.600,390.800 293.444,390.800 293.200 C 390.800 292.980,390.993 292.800,391.229 292.800 C 391.782 292.800,392.800 291.782,392.800 291.229 C 392.800 290.993,392.980 290.800,393.200 290.800 C 393.457 290.800,393.600 286.733,393.600 279.400 L 393.600 268.000 396.800 268.000 L 400.000 268.000 400.000 200.400 L 400.000 132.800 396.800 132.800 L 393.600 132.800 393.600 121.400 C 393.600 114.067,393.457 110.000,393.200 110.000 C 392.980 110.000,392.800 109.643,392.800 109.208 C 392.800 108.696,392.446 108.326,391.800 108.164 C 391.250 108.026,390.800 107.753,390.800 107.557 C 390.800 107.360,388.640 107.200,386.000 107.200 L 381.200 107.200 381.200 101.633 C 381.200 97.571,381.065 96.004,380.700 95.833 C 380.300 95.647,380.300 95.553,380.700 95.367 C 381.034 95.211,381.200 94.149,381.200 92.167 L 381.200 89.200 380.000 89.200 C 379.340 89.200,378.800 89.020,378.800 88.800 C 378.800 88.580,379.160 88.400,379.600 88.400 C 381.033 88.400,380.678 85.852,379.013 84.187 C 377.375 82.548,375.200 82.214,375.200 83.600 C 375.200 84.040,375.020 84.400,374.800 84.400 C 374.580 84.400,374.400 83.860,374.400 83.200 L 374.400 82.000 371.600 82.000 L 368.800 82.000 368.800 76.782 C 368.800 69.595,368.805 69.600,361.618 69.600 L 356.400 69.600 356.400 63.971 C 356.400 56.763,356.850 57.200,349.429 57.200 L 343.600 57.200 343.600 51.371 C 343.600 43.950,344.037 44.400,336.829 44.400 L 331.200 44.400 331.200 39.182 C 331.200 31.995,331.205 32.000,324.018 32.000 L 318.800 32.000 318.800 30.433 C 318.800 29.571,318.575 28.762,318.300 28.633 C 317.900 28.447,317.900 28.353,318.300 28.167 C 319.498 27.608,318.901 24.400,317.600 24.400 C 316.940 24.400,316.400 24.220,316.400 24.000 C 316.400 23.780,316.760 23.600,317.200 23.600 C 318.295 23.600,318.210 22.574,317.018 21.382 C 315.826 20.190,314.800 20.105,314.800 21.200 C 314.800 21.640,314.620 22.000,314.400 22.000 C 314.180 22.000,314.000 21.460,314.000 20.800 C 314.000 19.493,310.399 18.888,309.833 20.100 C 309.647 20.500,309.553 20.500,309.367 20.100 C 309.192 19.725,307.189 19.600,301.367 19.600 L 293.600 19.600 293.600 14.800 C 293.600 11.867,293.444 10.000,293.200 10.000 C 292.980 10.000,292.800 9.643,292.800 9.208 C 292.800 8.696,292.446 8.326,291.800 8.164 C 291.250 8.026,290.800 7.753,290.800 7.557 C 290.800 7.356,285.809 7.200,279.400 7.200 L 268.000 7.200 268.000 3.600 L 268.000 0.000 200.400 0.000 L 132.800 0.000 132.800 3.600 M85.200 21.429 C 85.200 21.554,84.921 21.936,84.581 22.276 C 83.800 23.057,83.331 22.666,84.060 21.842 C 84.606 21.224,85.200 21.009,85.200 21.429 M316.676 21.819 C 317.017 22.160,317.192 22.541,317.067 22.667 C 316.836 22.897,315.600 21.853,315.600 21.429 C 315.600 21.024,316.041 21.184,316.676 21.819 M268.800 69.200 C 268.800 69.448,266.600 69.600,263.000 69.600 C 259.400 69.600,257.200 69.752,257.200 70.000 C 257.200 70.220,257.020 70.400,256.800 70.400 C 256.580 70.400,256.400 70.040,256.400 69.600 C 256.400 68.834,256.667 68.800,262.600 68.800 C 266.467 68.800,268.800 68.951,268.800 69.200 M245.200 81.600 C 245.200 81.820,245.020 82.000,244.800 82.000 C 244.551 82.000,244.400 84.333,244.400 88.200 L 244.400 94.400 238.771 94.400 C 231.563 94.400,232.000 93.950,232.000 101.371 L 232.000 107.200 226.371 107.200 C 219.180 107.200,219.600 106.780,219.600 113.971 L 219.600 119.600 216.433 119.600 C 214.291 119.600,213.191 119.762,213.033 120.100 C 212.847 120.500,212.753 120.500,212.567 120.100 C 212.149 119.205,208.500 119.456,208.200 120.400 C 208.060 120.840,207.778 121.200,207.573 121.200 C 207.003 121.200,207.121 124.697,207.700 124.967 C 208.100 125.153,208.100 125.247,207.700 125.433 C 207.362 125.591,207.200 126.691,207.200 128.833 L 207.200 132.000 202.400 132.000 C 199.467 132.000,197.600 132.156,197.600 132.400 C 197.600 132.620,197.317 132.800,196.971 132.800 C 196.163 132.800,195.200 133.763,195.200 134.571 C 195.200 134.917,195.020 135.200,194.800 135.200 C 194.557 135.200,194.400 137.000,194.400 139.800 L 194.400 144.400 192.200 144.400 C 190.022 144.400,190.000 144.412,190.000 145.600 C 190.000 146.260,189.820 146.800,189.600 146.800 C 189.380 146.800,189.200 146.440,189.200 146.000 C 189.200 145.333,188.933 145.200,187.600 145.200 C 186.720 145.200,186.000 145.380,186.000 145.600 C 186.000 145.820,185.717 146.000,185.371 146.000 C 184.563 146.000,183.600 146.963,183.600 147.771 C 183.600 148.117,183.420 148.400,183.200 148.400 C 182.980 148.400,182.800 149.120,182.800 150.000 C 182.800 151.333,182.933 151.600,183.600 151.600 C 184.040 151.600,184.400 151.780,184.400 152.000 C 184.400 152.220,183.860 152.400,183.200 152.400 L 182.000 152.400 182.000 155.800 L 182.000 159.200 180.400 159.200 C 179.520 159.200,178.800 159.380,178.800 159.600 C 178.800 159.820,178.440 160.000,178.000 160.000 C 177.560 160.000,177.200 160.180,177.200 160.400 C 177.200 160.620,176.840 160.800,176.400 160.800 C 175.960 160.800,175.600 160.972,175.600 161.182 C 175.600 161.392,175.150 162.014,174.600 162.564 C 174.050 163.114,173.600 163.842,173.600 164.182 C 173.600 164.522,173.420 164.800,173.200 164.800 C 172.980 164.800,172.800 165.160,172.800 165.600 C 172.800 166.040,172.620 166.400,172.400 166.400 C 172.180 166.400,172.000 167.300,172.000 168.400 C 172.000 170.356,171.973 170.400,170.800 170.400 L 169.600 170.400 169.600 176.200 L 169.600 182.000 163.971 182.000 C 156.780 182.000,157.200 181.580,157.200 188.771 L 157.200 194.400 151.782 194.400 C 146.563 194.400,146.328 194.436,145.382 195.382 C 144.436 196.328,144.400 196.563,144.400 201.782 L 144.400 207.200 139.400 207.200 C 136.333 207.200,134.400 207.355,134.400 207.600 C 134.400 207.820,134.040 208.000,133.600 208.000 C 133.156 208.000,132.800 208.267,132.800 208.600 C 132.800 208.930,132.620 209.200,132.400 209.200 C 132.154 209.200,132.000 211.200,132.000 214.400 L 132.000 219.600 130.433 219.600 C 129.571 219.600,128.762 219.825,128.633 220.100 C 128.447 220.500,128.353 220.500,128.167 220.100 C 128.007 219.759,126.876 219.600,124.600 219.600 C 122.324 219.600,121.193 219.759,121.033 220.100 C 120.847 220.500,120.753 220.500,120.567 220.100 C 120.438 219.825,119.988 219.600,119.567 219.600 C 118.836 219.600,118.800 219.214,118.800 211.400 C 118.800 206.200,118.654 203.200,118.400 203.200 C 118.178 203.200,118.000 202.133,118.000 200.800 C 118.000 199.467,117.822 198.400,117.600 198.400 C 117.380 198.400,117.200 198.117,117.200 197.771 C 117.200 196.963,116.237 196.000,115.429 196.000 C 115.083 196.000,114.800 195.820,114.800 195.600 C 114.800 195.378,113.733 195.200,112.400 195.200 C 111.067 195.200,110.000 195.022,110.000 194.800 C 110.000 194.580,109.190 194.400,108.200 194.400 L 106.400 194.400 106.400 189.182 C 106.400 181.965,106.436 182.000,99.018 182.000 L 93.600 182.000 93.600 174.633 C 93.600 169.131,93.473 167.208,93.100 167.033 C 92.700 166.847,92.700 166.753,93.100 166.567 C 93.705 166.284,93.800 161.600,93.200 161.600 C 92.980 161.600,92.800 161.152,92.800 160.605 C 92.800 159.218,91.636 158.000,90.311 158.000 C 89.700 158.000,89.200 157.820,89.200 157.600 C 89.200 157.000,84.516 157.095,84.233 157.700 C 84.047 158.100,83.953 158.100,83.767 157.700 C 83.638 157.425,83.008 157.200,82.367 157.200 L 81.200 157.200 81.200 151.371 C 81.200 143.950,81.637 144.400,74.429 144.400 L 68.800 144.400 68.800 135.147 C 68.800 125.279,68.986 124.400,71.075 124.400 C 71.824 124.400,74.400 121.777,74.400 121.013 C 74.400 120.676,74.568 120.400,74.773 120.400 C 74.978 120.400,75.260 120.040,75.400 119.600 C 75.649 118.815,76.005 118.800,94.427 118.800 C 106.676 118.800,113.200 118.661,113.200 118.400 C 113.200 118.180,113.838 118.000,114.618 118.000 C 116.541 118.000,118.000 116.541,118.000 114.618 C 118.000 113.838,118.180 113.200,118.400 113.200 C 118.635 113.200,118.800 111.800,118.800 109.800 L 118.800 106.400 138.400 106.400 C 151.200 106.400,158.000 106.261,158.000 106.000 C 158.000 105.774,159.133 105.600,160.600 105.600 C 162.067 105.600,163.200 105.426,163.200 105.200 C 163.200 104.980,163.658 104.800,164.218 104.800 C 165.529 104.800,167.200 103.129,167.200 101.818 C 167.200 101.258,167.380 100.800,167.600 100.800 C 167.829 100.800,168.000 99.600,168.000 98.000 C 168.000 96.400,168.171 95.200,168.400 95.200 C 168.620 95.200,168.800 94.840,168.800 94.400 C 168.800 93.612,169.067 93.600,186.400 93.600 L 204.000 93.600 204.000 92.600 C 204.000 92.050,204.180 91.600,204.400 91.600 C 204.620 91.600,204.800 91.870,204.800 92.200 C 204.800 92.867,206.255 93.035,206.469 92.393 C 206.544 92.169,207.549 91.874,208.702 91.737 C 209.856 91.600,210.800 91.334,210.800 91.144 C 210.800 90.955,211.075 90.800,211.411 90.800 C 212.204 90.800,215.600 87.404,215.600 86.611 C 215.600 86.275,215.780 86.000,216.000 86.000 C 216.220 86.000,216.400 85.280,216.400 84.400 C 216.400 83.520,216.580 82.800,216.800 82.800 C 217.020 82.800,217.200 82.440,217.200 82.000 C 217.200 81.215,217.467 81.200,231.200 81.200 C 240.267 81.200,245.200 81.341,245.200 81.600 M186.257 147.400 C 186.790 147.933,186.787 148.070,186.229 148.629 C 185.332 149.525,184.041 148.371,184.878 147.422 C 185.534 146.678,185.535 146.678,186.257 147.400 M344.400 206.800 C 344.400 207.048,342.257 207.200,338.771 207.200 C 331.580 207.200,332.000 206.780,332.000 213.971 L 332.000 219.600 326.371 219.600 C 319.180 219.600,319.600 219.180,319.600 226.371 L 319.600 232.000 316.033 232.000 C 313.571 232.000,312.394 232.155,312.233 232.500 C 312.047 232.900,311.953 232.900,311.767 232.500 C 311.361 231.631,308.494 231.873,308.200 232.800 C 308.060 233.240,307.778 233.600,307.573 233.600 C 307.009 233.600,307.126 236.699,307.700 236.967 C 308.100 237.153,308.100 237.247,307.700 237.433 C 307.358 237.593,307.200 238.731,307.200 241.033 L 307.200 244.400 305.233 244.400 C 304.051 244.400,303.174 244.599,303.033 244.900 C 302.847 245.300,302.753 245.300,302.567 244.900 C 302.281 244.288,296.800 244.193,296.800 244.800 C 296.800 245.020,296.440 245.200,296.000 245.200 C 295.467 245.200,295.200 245.467,295.200 246.000 C 295.200 246.440,295.020 246.800,294.800 246.800 C 294.193 246.800,294.288 252.281,294.900 252.567 C 295.300 252.753,295.300 252.847,294.900 253.033 C 294.599 253.174,294.400 254.051,294.400 255.233 L 294.400 257.200 291.000 257.200 C 289.000 257.200,287.600 257.365,287.600 257.600 C 287.600 257.820,286.908 258.000,286.061 258.000 C 283.977 258.000,282.800 259.064,282.800 260.947 C 282.800 261.746,282.620 262.400,282.400 262.400 C 282.160 262.400,282.000 264.000,282.000 266.400 L 282.000 270.400 279.600 270.400 C 278.267 270.400,277.200 270.578,277.200 270.800 C 277.200 271.020,276.750 271.200,276.200 271.200 C 275.650 271.200,275.200 271.380,275.200 271.600 C 275.200 271.820,274.922 272.000,274.582 272.000 C 273.886 272.000,272.000 273.740,272.000 274.382 C 272.000 274.612,271.820 274.800,271.600 274.800 C 271.380 274.800,271.200 275.340,271.200 276.000 C 271.200 276.660,271.020 277.200,270.800 277.200 C 270.578 277.200,270.400 278.267,270.400 279.600 C 270.400 280.933,270.222 282.000,270.000 282.000 C 269.751 282.000,269.600 284.333,269.600 288.200 L 269.600 294.400 265.233 294.400 C 262.131 294.400,260.799 294.545,260.633 294.900 C 260.447 295.300,260.353 295.300,260.167 294.900 C 259.852 294.226,258.476 294.267,257.771 294.971 C 257.067 295.676,257.022 297.450,257.700 297.767 C 258.100 297.953,258.100 298.047,257.700 298.233 C 257.345 298.399,257.200 299.731,257.200 302.833 L 257.200 307.200 251.600 307.200 C 248.403 307.200,246.000 307.360,246.000 307.573 C 246.000 307.778,245.640 308.060,245.200 308.200 C 244.450 308.438,244.400 308.805,244.400 314.027 L 244.400 319.600 239.400 319.600 C 236.333 319.600,234.400 319.755,234.400 320.000 C 234.400 320.220,234.040 320.400,233.600 320.400 C 233.067 320.400,232.800 320.667,232.800 321.200 C 232.800 321.640,232.620 322.000,232.400 322.000 C 232.155 322.000,232.000 323.933,232.000 327.000 L 232.000 332.000 230.433 332.000 C 229.571 332.000,228.762 332.225,228.633 332.500 C 228.447 332.900,228.353 332.900,228.167 332.500 C 227.608 331.302,224.400 331.899,224.400 333.200 C 224.400 333.860,224.220 334.400,224.000 334.400 C 223.780 334.400,223.600 334.040,223.600 333.600 C 223.600 332.505,222.574 332.590,221.382 333.782 C 220.190 334.974,220.105 336.000,221.200 336.000 C 221.640 336.000,222.000 336.180,222.000 336.400 C 222.000 336.620,221.460 336.800,220.800 336.800 C 219.493 336.800,218.888 340.401,220.100 340.967 C 220.500 341.153,220.500 341.247,220.100 341.433 C 219.811 341.568,219.600 342.411,219.600 343.433 L 219.600 345.200 217.200 345.200 C 215.867 345.200,214.800 345.378,214.800 345.600 C 214.800 345.820,214.260 346.000,213.600 346.000 C 212.940 346.000,212.400 346.180,212.400 346.400 C 212.400 346.620,212.122 346.800,211.782 346.800 C 210.998 346.800,209.200 348.575,209.200 349.348 C 209.200 349.670,209.014 349.995,208.787 350.071 C 208.560 350.147,208.264 351.782,208.128 353.704 C 207.913 356.751,207.786 357.200,207.141 357.200 C 206.444 357.200,206.400 356.714,206.400 349.000 C 206.400 343.800,206.254 340.800,206.000 340.800 C 205.778 340.800,205.600 339.733,205.600 338.400 C 205.600 337.067,205.422 336.000,205.200 336.000 C 204.980 336.000,204.800 335.717,204.800 335.371 C 204.800 334.563,203.837 333.600,203.029 333.600 C 202.683 333.600,202.400 333.420,202.400 333.200 C 202.400 332.978,201.333 332.800,200.000 332.800 C 198.667 332.800,197.600 332.622,197.600 332.400 C 197.600 332.180,196.700 332.000,195.600 332.000 L 193.600 332.000 193.600 328.400 C 193.600 325.804,193.461 324.791,193.100 324.768 C 192.700 324.743,192.700 324.696,193.100 324.535 C 193.995 324.174,193.688 321.651,192.618 320.582 C 191.561 319.525,189.435 319.239,189.033 320.100 C 188.847 320.500,188.753 320.500,188.567 320.100 C 188.406 319.755,187.229 319.600,184.767 319.600 L 181.200 319.600 181.200 309.400 C 181.200 302.867,181.056 299.200,180.800 299.200 C 180.580 299.200,180.400 298.742,180.400 298.182 C 180.400 297.622,179.958 296.722,179.418 296.182 C 178.878 295.642,177.978 295.200,177.418 295.200 C 176.858 295.200,176.400 295.020,176.400 294.800 C 176.400 294.561,174.867 294.400,172.600 294.400 L 168.800 294.400 168.800 288.771 C 168.800 281.580,169.220 282.000,162.029 282.000 L 156.400 282.000 156.400 271.000 C 156.400 263.933,156.257 260.000,156.000 260.000 C 155.780 260.000,155.600 259.636,155.600 259.190 C 155.600 258.610,155.259 258.312,154.400 258.140 C 153.740 258.008,153.200 257.743,153.200 257.550 C 153.200 257.358,151.040 257.200,148.400 257.200 C 145.467 257.200,143.600 257.044,143.600 256.800 C 143.600 256.540,148.867 256.400,158.600 256.400 C 168.333 256.400,173.600 256.260,173.600 256.000 C 173.600 255.780,174.410 255.600,175.400 255.600 C 176.390 255.600,177.200 255.420,177.200 255.200 C 177.200 254.980,177.483 254.800,177.829 254.800 C 178.637 254.800,179.600 253.837,179.600 253.029 C 179.600 252.683,179.780 252.400,180.000 252.400 C 180.220 252.400,180.400 251.500,180.400 250.400 C 180.400 249.300,180.580 248.400,180.800 248.400 C 181.022 248.400,181.200 247.333,181.200 246.000 L 181.200 243.600 199.600 243.600 C 211.600 243.600,218.000 243.461,218.000 243.200 C 218.000 242.978,219.067 242.800,220.400 242.800 C 221.720 242.800,222.800 242.645,222.800 242.456 C 222.800 242.266,223.700 242.005,224.799 241.875 C 226.883 241.628,228.800 240.259,228.800 239.018 C 228.800 238.678,228.980 238.400,229.200 238.400 C 229.420 238.400,229.600 237.680,229.600 236.800 C 229.600 235.920,229.780 235.200,230.000 235.200 C 230.220 235.200,230.400 234.300,230.400 233.200 L 230.400 231.200 248.000 231.200 C 259.467 231.200,265.600 231.061,265.600 230.800 C 265.600 230.580,265.960 230.400,266.400 230.400 C 267.282 230.400,267.490 229.770,266.700 229.488 C 266.425 229.390,266.345 229.155,266.522 228.966 C 266.699 228.778,266.997 228.872,267.185 229.176 C 267.726 230.050,268.800 228.719,268.800 227.175 C 268.800 225.859,269.996 224.400,271.075 224.400 C 271.824 224.400,274.400 221.777,274.400 221.013 C 274.400 220.676,274.568 220.400,274.773 220.400 C 274.978 220.400,275.260 220.040,275.400 219.600 C 275.649 218.815,276.005 218.800,294.427 218.800 C 306.676 218.800,313.200 218.661,313.200 218.400 C 313.200 218.180,313.838 218.000,314.618 218.000 C 315.591 218.000,316.345 217.691,317.018 217.018 C 317.691 216.345,318.000 215.591,318.000 214.618 C 318.000 213.838,318.180 213.200,318.400 213.200 C 318.635 213.200,318.800 211.800,318.800 209.800 L 318.800 206.400 331.600 206.400 C 339.867 206.400,344.400 206.542,344.400 206.800 M222.800 333.829 C 222.800 333.954,222.521 334.336,222.181 334.676 C 221.400 335.457,220.931 335.066,221.660 334.242 C 222.206 333.624,222.800 333.409,222.800 333.829 M84.676 378.619 C 85.017 378.960,85.192 379.341,85.067 379.467 C 84.836 379.697,83.600 378.653,83.600 378.229 C 83.600 377.824,84.041 377.984,84.676 378.619 M317.200 378.229 C 317.200 378.354,316.921 378.736,316.581 379.076 C 315.800 379.857,315.331 379.466,316.060 378.642 C 316.606 378.024,317.200 377.809,317.200 378.229 " stroke="none" fill="#fafafa" fill-rule="evenodd"></path></g></svg>